# xmcd
#
# Track frame offsets:
#	150
#	12417
#	25490
#	36877
#	49292
#	61660
#	75355
#	88245
#	101547
#	113072
#	124112
#	135062
#	146985
#	160192
#	171480
#	182842
#	193855
#	206192
#	217172
#	228997
#	243292
#	256512
#	269095
#	279730
#	291770
#	305217
#
# Disc length: 4219 seconds
#
# Revision: 1
# Processed by: cddbd v1.4PL0 Copyright (c) Steve Scherf et al.
# Submitted via: CDmax 1.8
#
DISCID=8910791a
DTITLE=Pee-Wee - Pee-Wee King  And His Golden West Cowboys, CD-1
DYEAR=1900
DGENRE=Country
TTITLE0=That Cheap Look In Your Eye
TTITLE1=You Were The Cause Of It All
TTITLE2=Texas Toni Lee
TTITLE3=Tennessee Central #9
TTITLE4=Southland Polka
TTITLE5=Steel Guitar Rag
TTITLE6=I Hear You Knockin'
TTITLE7=Keep Them Cold Icy Fingers Off Of Me
TTITLE8=Don't Feel Sorry For Me
TTITLE9=Arkansas Traveler
TTITLE10=Out Of My Mind
TTITLE11=Ten Gallon Boogie
TTITLE12=Kentucky Waltz
TTITLE13=Don't Forget
TTITLE14=Jukebox Blues
TTITLE15=Chattanooga Bess
TTITLE16=Say Good Mornin' Nellie
TTITLE17=Forty Nine Women
TTITLE18=The Ghost And Honest Joe
TTITLE19=New York To New Orleans
TTITLE20=I'm Satisfied With You
TTITLE21=Quit Honkin' That Horn
TTITLE22=Oh Monah
TTITLE23=Bull Fiddle Boogie
TTITLE24=Tennessee Waltz
TTITLE25=Rootie Tootie
EXTD=
EXTT0=
EXTT1=
EXTT2=
EXTT3=
EXTT4=
EXTT5=
EXTT6=
EXTT7=
EXTT8=
EXTT9=
EXTT10=
EXTT11=
EXTT12=
EXTT13=
EXTT14=
EXTT15=
EXTT16=
EXTT17=
EXTT18=
EXTT19=
EXTT20=
EXTT21=
EXTT22=
EXTT23=
EXTT24=
EXTT25=
PLAYORDER=
